<?xml version="1.0" encoding="utf-8" ?><svg xmlns="http://www.w3.org/2000/svg" xmlns:xlink="http://www.w3.org/1999/xlink" width="16" height="16" viewBox="0 0 16 16"><defs><linearGradient id="gradient_0" gradientUnits="userSpaceOnUse" x1="368.25937" y1="333.79797" x2="74.44577" y2="172.18956"><stop offset="0" stop-color="#6BBAFF"/><stop offset="1" stop-color="#BAC9FA"/></linearGradient></defs><path fill="url(#gradient_0)" transform="scale(0.03125 0.03125)" d="M347.207 372.531C343.19 377.717 335.979 383.597 330.903 387.754C223.717 475.453 61.6378 401.308 53.2399 264.162C47.4284 169.255 120.706 89.0368 215.338 84.8019C271.644 82.2821 309.573 101.384 349.5 137.495C354.375 143.643 360.406 150.191 364.788 156.452C389.703 192.049 401.179 236.227 395.8 279.426C395.624 280.835 394.746 286.134 394.759 287.196C379.471 299.077 354.578 294.585 339.758 283.946C352.612 246.601 338.23 198.834 310.74 171.684C264.474 122.854 186.835 123.214 139.044 170.075C61.4653 246.147 116.318 374.269 223.341 374.992C258.789 375.232 286.32 361.907 311.768 337.931C323.894 348.636 334.86 361.495 347.207 372.531Z"/><defs><linearGradient id="gradient_1" gradientUnits="userSpaceOnUse" x1="445.32178" y1="235.24762" x2="337.99811" y2="153.68808"><stop offset="0" stop-color="#85CEFE"/><stop offset="1" stop-color="#C9EEFA"/></linearGradient></defs><path fill="url(#gradient_1)" transform="scale(0.03125 0.03125)" d="M349.5 137.495C351.857 134.071 360.093 129.055 363.933 127.301C398.822 111.36 439.737 129.77 454.368 164.403C465.493 190.738 459.571 221.087 440.667 242.042C438.467 244.805 425.857 255.908 425.217 257.805C415.311 264.125 405.027 280.61 394.759 287.196C394.746 286.134 395.624 280.835 395.8 279.426C401.179 236.227 389.703 192.049 364.788 156.452C360.406 150.191 354.375 143.643 349.5 137.495Z"/><defs><linearGradient id="gradient_2" gradientUnits="userSpaceOnUse" x1="360.52011" y1="257.89594" x2="285.22916" y2="194.85344"><stop offset="0" stop-color="#96D8FD"/><stop offset="1" stop-color="#CEEFFB"/></linearGradient></defs><path fill="url(#gradient_2)" transform="scale(0.03125 0.03125)" d="M310.74 171.684C338.23 198.834 352.612 246.601 339.758 283.946C330.523 277.532 323.492 269.809 315.549 261.949L286.072 232.478C280.45 226.775 273.976 219.861 268.224 214.446L268.224 214.446C270.184 211.793 274.959 206.95 277.299 204.577L291.082 190.768C294.495 187.361 307.587 172.833 310.74 171.684Z"/><defs><linearGradient id="gradient_3" gradientUnits="userSpaceOnUse" x1="270.50754" y1="287.28909" x2="178.32918" y2="220.39091"><stop offset="0" stop-color="#8AD1FE"/><stop offset="1" stop-color="#C6E9FB"/></linearGradient></defs><path fill="url(#gradient_3)" transform="scale(0.03125 0.03125)" d="M267.064 293.494C220.298 346.127 134.181 279.757 177.669 220.673C196.37 195.264 232.211 189.568 258.339 206.684C262.01 209.084 264.796 211.905 268.224 214.446L268.224 214.446C265.417 215.458 255.354 225.72 253.172 228.574C244.886 239.415 242.703 254.848 247.235 267.64C251.544 279.8 258.953 284.65 267.064 293.494Z"/><defs><linearGradient id="gradient_4" gradientUnits="userSpaceOnUse" x1="413.965" y1="384.3764" x2="301.06567" y2="194.99037"><stop offset="0" stop-color="#4E81FF"/><stop offset="1" stop-color="#A0C2FE"/></linearGradient></defs><path fill="url(#gradient_4)" transform="scale(0.03125 0.03125)" d="M267.064 293.494C258.953 284.65 251.544 279.8 247.235 267.64C242.703 254.848 244.886 239.415 253.172 228.574C255.354 225.72 265.417 215.458 268.224 214.446C273.976 219.861 280.45 226.775 286.072 232.478L315.549 261.949C323.492 269.809 330.523 277.532 339.758 283.946C354.578 294.585 379.471 299.077 394.759 287.196C405.027 280.61 415.311 264.125 425.217 257.805C437.934 262.741 449.661 276.33 454.845 288.839C482.494 355.552 406.103 417.643 347.207 372.531C334.86 361.495 323.894 348.636 311.768 337.931C309.803 335.528 306.952 332.899 304.715 330.721L296.17 322.241C286.788 312.876 276.715 302.518 267.064 293.494Z"/></svg>