<?xml version="1.0" encoding="UTF-8"?>
<svg xmlns="http://www.w3.org/2000/svg" xmlns:xlink="http://www.w3.org/1999/xlink" width="600px" height="115px" viewBox="0 0 598 115" version="1.1">
<g id="surface1">
<path style=" stroke:none;fill-rule:nonzero;fill:rgb(58.039218%,75.686276%,98.823529%);fill-opacity:1;" d="M 96.695312 23 C 97.792969 22.589844 98.730469 22.140625 99.695312 21.476562 C 103.628906 18.957031 108.492188 18.699219 112.980469 19.589844 C 118.015625 20.894531 122.394531 24.070312 125.15625 28.492188 C 127.933594 33.246094 128.835938 38.707031 127.585938 44.109375 C 126.417969 48.375 124.277344 51.472656 121.273438 54.628906 C 120.351562 55.617188 119.492188 56.625 118.640625 57.671875 C 118.835938 57.707031 119.03125 57.746094 119.234375 57.78125 C 122.222656 58.679688 124.304688 61.652344 125.839844 64.195312 C 128.453125 69.277344 128.980469 74.726562 127.277344 80.191406 C 126.503906 82.269531 125.457031 84.054688 124.125 85.820312 C 123.9375 86.074219 123.746094 86.328125 123.554688 86.59375 C 120.269531 90.644531 115.523438 92.980469 110.410156 93.714844 C 105.675781 94.136719 101.40625 92.644531 97.378906 90.285156 C 97.15625 90.058594 96.929688 89.832031 96.695312 89.597656 C 96.441406 89.847656 96.1875 90.097656 95.925781 90.351562 C 89.621094 96.429688 82.25 100.84375 73.722656 102.984375 C 73.300781 103.09375 72.882812 103.203125 72.449219 103.316406 C 65.34375 104.953125 57.414062 104.519531 50.40625 102.640625 C 50.175781 102.582031 49.945312 102.519531 49.710938 102.457031 C 37.40625 99.074219 26.578125 90.40625 20.289062 79.351562 C 16.472656 72.277344 14.601562 64.589844 14.636719 56.578125 C 14.636719 56.34375 14.640625 56.109375 14.640625 55.871094 C 14.710938 43.164062 19.621094 31.539062 28.589844 22.515625 C 48.402344 3.15625 76.78125 5.949219 96.695312 23 Z M 36.003906 35.703125 C 29.859375 43.277344 27.9375 52.105469 28.894531 61.683594 C 30.113281 70.140625 35.027344 78.035156 41.773438 83.214844 C 43.117188 84.171875 44.511719 85.007812 45.945312 85.820312 C 46.230469 85.988281 46.515625 86.15625 46.804688 86.328125 C 54.210938 90.40625 63.554688 90.832031 71.59375 88.664062 C 77.414062 86.957031 82.035156 83.820312 86.410156 79.640625 C 85.027344 77.984375 83.582031 76.421875 82.050781 74.902344 C 81.839844 74.691406 81.628906 74.480469 81.414062 74.265625 C 80.75 73.605469 80.085938 72.941406 79.421875 72.28125 C 78.96875 71.832031 78.515625 71.378906 78.0625 70.925781 C 76.960938 69.824219 75.855469 68.726562 74.75 67.625 C 73.578125 68.1875 72.628906 68.867188 71.601562 69.664062 C 68.324219 72.082031 64.722656 72.777344 60.691406 72.433594 C 59.15625 72.089844 57.703125 71.617188 56.234375 71.058594 C 55.980469 70.964844 55.726562 70.871094 55.464844 70.769531 C 51.792969 69.167969 48.898438 65.773438 47.210938 62.210938 C 45.605469 58.035156 45.875 53.734375 47.660156 49.6875 C 49.695312 45.644531 52.925781 42.757812 57.175781 41.257812 C 61.882812 39.867188 66.605469 40.238281 70.957031 42.546875 C 72.191406 43.261719 73.339844 44.011719 74.40625 44.96875 C 74.757812 44.617188 74.757812 44.617188 75.117188 44.257812 C 78.765625 40.605469 82.417969 36.953125 86.066406 33.296875 C 79.519531 26.730469 71.832031 23.242188 62.511719 23.191406 C 52.082031 23.316406 42.871094 27.890625 36.003906 35.703125 Z M 36.003906 35.703125 "/>
<path style=" stroke:none;fill-rule:nonzero;fill:rgb(22.352941%,65.882355%,99.607843%);fill-opacity:1;" d="M 418.75 26.042969 C 419.378906 26.042969 419.378906 26.042969 420.019531 26.042969 C 420.449219 26.042969 420.882812 26.046875 421.324219 26.046875 C 421.550781 26.046875 421.777344 26.046875 422.007812 26.046875 C 426.613281 26.054688 431.210938 26.210938 435.8125 26.433594 C 436.089844 27.890625 436.199219 29.261719 436.199219 30.746094 C 436.199219 31.191406 436.203125 31.640625 436.203125 32.101562 C 436.203125 32.589844 436.199219 33.082031 436.199219 33.574219 C 436.199219 34.09375 436.203125 34.613281 436.203125 35.136719 C 436.203125 36.546875 436.203125 37.957031 436.203125 39.363281 C 436.199219 40.839844 436.203125 42.316406 436.203125 43.789062 C 436.203125 46.265625 436.203125 48.742188 436.199219 51.214844 C 436.199219 54.082031 436.199219 56.945312 436.203125 59.8125 C 436.203125 62.269531 436.203125 64.726562 436.203125 67.1875 C 436.203125 68.65625 436.203125 70.125 436.203125 71.59375 C 436.203125 72.972656 436.203125 74.351562 436.199219 75.730469 C 436.199219 76.238281 436.199219 76.746094 436.203125 77.253906 C 436.203125 77.945312 436.199219 78.632812 436.199219 79.324219 C 436.199219 79.710938 436.199219 80.097656 436.199219 80.496094 C 436.15625 81.359375 436.15625 81.359375 435.8125 81.703125 C 434.925781 81.75 434.046875 81.777344 433.160156 81.789062 C 432.878906 81.792969 432.601562 81.800781 432.316406 81.804688 C 429.738281 81.847656 427.160156 81.871094 424.578125 81.890625 C 422.847656 81.902344 421.117188 81.921875 419.386719 81.953125 C 417.710938 81.984375 416.035156 82.003906 414.363281 82.007812 C 413.726562 82.011719 413.089844 82.023438 412.453125 82.039062 C 406.859375 82.171875 406.859375 82.171875 404.472656 80.238281 C 403.933594 79.707031 403.410156 79.164062 402.894531 78.613281 C 402.308594 78.078125 401.714844 77.546875 401.117188 77.023438 C 400.835938 76.765625 400.550781 76.511719 400.261719 76.246094 C 397.34375 73.589844 394.316406 71.050781 391.320312 68.484375 C 388.839844 66.359375 386.367188 64.230469 383.902344 62.085938 C 382.851562 61.171875 381.792969 60.257812 380.730469 59.351562 C 378.828125 57.730469 376.949219 56.097656 375.121094 54.390625 C 371.601562 51.042969 371.601562 51.042969 367.578125 48.402344 C 367.578125 59.390625 367.578125 70.378906 367.578125 81.703125 C 366.109375 81.945312 364.925781 82.089844 363.46875 82.089844 C 362.871094 82.089844 362.871094 82.089844 362.265625 82.09375 C 361.839844 82.089844 361.414062 82.089844 360.980469 82.089844 C 360.539062 82.089844 360.097656 82.089844 359.644531 82.089844 C 358.714844 82.09375 357.785156 82.089844 356.855469 82.089844 C 355.667969 82.085938 354.480469 82.089844 353.292969 82.089844 C 352.15625 82.09375 351.015625 82.089844 349.878906 82.089844 C 349.242188 82.089844 349.242188 82.089844 348.59375 82.09375 C 348.195312 82.089844 347.796875 82.089844 347.386719 82.089844 C 347.039062 82.089844 346.691406 82.089844 346.332031 82.089844 C 345.179688 82.039062 344.03125 81.863281 342.890625 81.703125 C 342.890625 63.460938 342.890625 45.222656 342.890625 26.433594 C 370.277344 26.433594 370.277344 26.433594 374.949219 30.875 C 376.445312 32.265625 377.984375 33.566406 379.574219 34.851562 C 380.796875 35.855469 381.988281 36.890625 383.179688 37.933594 C 384.949219 39.476562 386.738281 40.984375 388.558594 42.460938 C 389.695312 43.394531 390.808594 44.351562 391.921875 45.3125 C 393.335938 46.535156 394.757812 47.738281 396.210938 48.917969 C 399.144531 51.308594 402.027344 53.765625 404.804688 56.339844 C 406.820312 58.152344 408.980469 59.796875 411.125 61.449219 C 411.292969 44.117188 411.292969 44.117188 411.46875 26.433594 C 416.878906 26.046875 416.878906 26.046875 418.75 26.042969 Z M 418.75 26.042969 "/>
<path style=" stroke:none;fill-rule:nonzero;fill:rgb(22.352941%,65.882355%,99.607843%);fill-opacity:1;" d="M 282.925781 24.996094 C 283.367188 24.996094 283.804688 24.996094 284.257812 24.996094 C 291.023438 25.003906 297.746094 25.101562 304.484375 25.746094 C 304.859375 25.78125 305.230469 25.816406 305.613281 25.851562 C 313.15625 26.601562 320.761719 28.09375 326.089844 33.984375 C 330.449219 39.804688 330.625 47.113281 330.632812 54.089844 C 330.632812 54.328125 330.632812 54.570312 330.632812 54.816406 C 330.625 61.882812 329.972656 69.464844 324.980469 74.945312 C 321.683594 78.082031 317.515625 79.753906 313.144531 80.757812 C 312.921875 80.808594 312.695312 80.859375 312.464844 80.914062 C 307.851562 81.882812 303.03125 82.175781 298.335938 82.429688 C 298.078125 82.445312 297.816406 82.460938 297.550781 82.472656 C 291.644531 82.785156 285.734375 82.808594 279.824219 82.816406 C 279.082031 82.816406 278.339844 82.820312 277.597656 82.824219 C 254.09375 82.902344 254.09375 82.902344 244.480469 78.957031 C 244.023438 78.777344 244.023438 78.777344 243.554688 78.597656 C 239.378906 76.777344 236.179688 73.214844 234.476562 69.042969 C 231.316406 60.222656 231.027344 47.800781 234.726562 39.085938 C 237.484375 33.613281 241.902344 30.285156 247.566406 28.234375 C 253.820312 26.320312 260.269531 25.78125 266.769531 25.402344 C 267.230469 25.371094 267.691406 25.34375 268.152344 25.3125 C 273.074219 25.003906 277.996094 24.992188 282.925781 24.996094 Z M 270.648438 39.070312 C 270.007812 39.105469 270.007812 39.105469 269.359375 39.144531 C 265.480469 39.40625 261.359375 39.800781 258.453125 42.632812 C 255.007812 48.175781 256.121094 57.023438 257.371094 63.121094 C 257.890625 64.941406 258.71875 66.488281 260.253906 67.625 C 266.136719 70.40625 273.628906 69.800781 279.949219 69.773438 C 280.355469 69.769531 280.765625 69.769531 281.1875 69.769531 C 285.785156 69.757812 290.382812 69.738281 294.972656 69.40625 C 295.3125 69.382812 295.652344 69.359375 296.003906 69.335938 C 298.835938 69.082031 301.984375 68.558594 304.144531 66.597656 C 306.414062 63.203125 306.667969 59.355469 306.628906 55.375 C 306.625 54.839844 306.625 54.839844 306.621094 54.289062 C 306.617188 47.433594 306.617188 47.433594 303.800781 41.386719 C 298.128906 38.429688 290.136719 38.941406 283.914062 38.792969 C 283.585938 38.78125 283.261719 38.773438 282.925781 38.765625 C 278.824219 38.679688 274.742188 38.820312 270.648438 39.070312 Z M 270.648438 39.070312 "/>
<path style=" stroke:none;fill-rule:nonzero;fill:rgb(22.352941%,65.882355%,99.607843%);fill-opacity:1;" d="M 150.300781 26.386719 C 150.5625 26.386719 150.828125 26.386719 151.101562 26.390625 C 151.378906 26.390625 151.65625 26.386719 151.945312 26.386719 C 152.886719 26.386719 153.828125 26.386719 154.769531 26.386719 C 155.441406 26.386719 156.117188 26.386719 156.789062 26.386719 C 158.621094 26.386719 160.457031 26.386719 162.289062 26.386719 C 164.210938 26.386719 166.132812 26.386719 168.050781 26.386719 C 171.285156 26.386719 174.519531 26.386719 177.75 26.386719 C 181.476562 26.390625 185.203125 26.390625 188.925781 26.386719 C 192.128906 26.386719 195.332031 26.386719 198.535156 26.386719 C 200.445312 26.386719 202.355469 26.386719 204.265625 26.386719 C 206.066406 26.386719 207.871094 26.386719 209.671875 26.386719 C 210.332031 26.386719 210.988281 26.386719 211.644531 26.386719 C 215.746094 26.382812 219.816406 26.503906 223.90625 26.777344 C 224.214844 28.203125 224.292969 29.515625 224.296875 30.976562 C 224.296875 31.207031 224.296875 31.441406 224.296875 31.683594 C 224.296875 32.171875 224.296875 32.660156 224.292969 33.148438 C 224.292969 33.902344 224.292969 34.652344 224.296875 35.40625 C 224.296875 35.882812 224.296875 36.355469 224.296875 36.832031 C 224.296875 37.265625 224.292969 37.699219 224.292969 38.144531 C 224.25 39.132812 224.25 39.132812 223.90625 39.476562 C 223.304688 39.511719 222.699219 39.519531 222.09375 39.515625 C 221.503906 39.515625 221.503906 39.515625 220.902344 39.515625 C 220.46875 39.515625 220.03125 39.511719 219.585938 39.511719 C 219.125 39.511719 218.664062 39.511719 218.203125 39.507812 C 217.210938 39.507812 216.214844 39.507812 215.222656 39.503906 C 213.648438 39.5 212.074219 39.496094 210.5 39.496094 C 206.871094 39.492188 203.242188 39.484375 199.613281 39.476562 C 196.292969 39.46875 192.976562 39.460938 189.660156 39.460938 C 188.097656 39.457031 186.535156 39.453125 184.976562 39.449219 C 183.996094 39.445312 183.019531 39.445312 182.042969 39.445312 C 181.382812 39.445312 180.71875 39.441406 180.058594 39.4375 C 179.652344 39.4375 179.25 39.4375 178.835938 39.4375 C 178.492188 39.4375 178.144531 39.4375 177.789062 39.4375 C 176.128906 39.492188 174.472656 39.671875 172.816406 39.820312 C 172.703125 42.652344 172.589844 45.484375 172.472656 48.402344 C 186.617188 48.402344 200.761719 48.402344 215.335938 48.402344 C 215.335938 52.253906 215.335938 56.105469 215.335938 60.074219 C 212.242188 60.28125 209.230469 60.46875 206.144531 60.457031 C 205.59375 60.457031 205.59375 60.457031 205.027344 60.457031 C 203.832031 60.457031 202.636719 60.453125 201.4375 60.453125 C 200.601562 60.449219 199.761719 60.449219 198.921875 60.449219 C 196.734375 60.449219 194.542969 60.445312 192.355469 60.441406 C 190.113281 60.4375 187.871094 60.4375 185.628906 60.433594 C 181.246094 60.429688 176.859375 60.425781 172.472656 60.417969 C 172.472656 63.363281 172.472656 66.308594 172.472656 69.34375 C 173.699219 69.332031 174.929688 69.320312 176.191406 69.304688 C 180.285156 69.265625 184.378906 69.226562 188.472656 69.191406 C 190.949219 69.167969 193.429688 69.144531 195.90625 69.121094 C 198.070312 69.097656 200.234375 69.078125 202.398438 69.058594 C 203.539062 69.050781 204.683594 69.039062 205.824219 69.027344 C 211.980469 68.960938 218.097656 69.085938 224.25 69.34375 C 224.25 73.535156 224.25 77.726562 224.25 82.042969 C 220.632812 82.246094 217.074219 82.441406 213.460938 82.433594 C 213.191406 82.433594 212.921875 82.433594 212.644531 82.433594 C 212.367188 82.433594 212.089844 82.433594 211.804688 82.433594 C 211.207031 82.433594 210.605469 82.433594 210.007812 82.433594 C 208.398438 82.4375 206.789062 82.433594 205.179688 82.433594 C 203.480469 82.433594 201.78125 82.433594 200.085938 82.433594 C 197.234375 82.433594 194.382812 82.433594 191.53125 82.433594 C 188.253906 82.429688 184.976562 82.429688 181.699219 82.433594 C 178.867188 82.433594 176.035156 82.433594 173.203125 82.433594 C 171.519531 82.433594 169.835938 82.433594 168.152344 82.433594 C 154.78125 82.441406 154.78125 82.441406 148.128906 82.042969 C 148.082031 77.738281 148.039062 73.429688 147.996094 69.125 C 147.972656 67.121094 147.953125 65.121094 147.933594 63.117188 C 147.769531 47.789062 147.769531 47.789062 147.765625 40.367188 C 147.765625 40.121094 147.765625 39.878906 147.765625 39.625 C 147.753906 29.964844 147.753906 29.964844 148.128906 26.777344 C 148.726562 26.179688 149.503906 26.390625 150.300781 26.386719 Z M 150.300781 26.386719 "/>
<path style=" stroke:none;fill-rule:nonzero;fill:rgb(22.352941%,65.882355%,99.607843%);fill-opacity:1;" d="M 474.558594 26.433594 C 474.558594 26.816406 474.558594 27.203125 474.558594 27.597656 C 474.550781 31.238281 474.546875 34.878906 474.542969 38.519531 C 474.539062 40.390625 474.539062 42.261719 474.535156 44.132812 C 474.53125 45.941406 474.527344 47.753906 474.527344 49.5625 C 474.527344 50.25 474.523438 50.933594 474.523438 51.621094 C 473.996094 59.726562 473.996094 59.726562 476.789062 66.875 C 480.25 69.4375 485.542969 69.058594 489.605469 69.070312 C 489.96875 69.070312 489.96875 69.070312 490.34375 69.074219 C 491.636719 69.078125 492.929688 69.082031 494.222656 69.082031 C 495.542969 69.085938 496.863281 69.09375 498.183594 69.101562 C 499.210938 69.109375 500.242188 69.109375 501.269531 69.109375 C 501.753906 69.113281 502.242188 69.113281 502.726562 69.121094 C 507.226562 69.160156 513.09375 69.144531 516.519531 65.804688 C 517.667969 63.902344 517.882812 61.863281 517.976562 59.683594 C 517.988281 59.417969 518 59.148438 518.015625 58.875 C 518.15625 55.636719 518.148438 52.402344 518.140625 49.160156 C 518.140625 48.5 518.140625 47.839844 518.136719 47.179688 C 518.136719 45.464844 518.132812 43.746094 518.128906 42.03125 C 518.125 39.957031 518.125 37.886719 518.121094 35.8125 C 518.121094 32.6875 518.113281 29.558594 518.105469 26.433594 C 526.140625 26.433594 534.175781 26.433594 542.453125 26.433594 C 542.703125 28.199219 542.84375 29.832031 542.84375 31.597656 C 542.847656 31.996094 542.847656 31.996094 542.847656 32.402344 C 542.851562 33.277344 542.851562 34.152344 542.851562 35.027344 C 542.851562 35.640625 542.855469 36.257812 542.855469 36.875 C 542.859375 38.167969 542.859375 39.460938 542.859375 40.757812 C 542.859375 42.066406 542.859375 43.378906 542.867188 44.691406 C 542.949219 68.84375 542.949219 68.84375 537.6875 74.894531 C 531.363281 81.132812 521.238281 81.9375 512.851562 82.242188 C 512.476562 82.253906 512.101562 82.269531 511.714844 82.28125 C 506.554688 82.453125 501.390625 82.453125 496.230469 82.453125 C 495.054688 82.453125 493.882812 82.453125 492.710938 82.457031 C 462.410156 82.578125 462.410156 82.578125 454.523438 75.242188 C 450.714844 71.132812 450.15625 65.457031 450.175781 60.105469 C 450.175781 59.738281 450.175781 59.375 450.175781 58.996094 C 450.175781 57.796875 450.179688 56.597656 450.179688 55.398438 C 450.179688 54.5625 450.183594 53.726562 450.183594 52.890625 C 450.183594 50.699219 450.1875 48.507812 450.191406 46.316406 C 450.195312 44.078125 450.195312 41.839844 450.199219 39.601562 C 450.203125 35.210938 450.207031 30.820312 450.214844 26.433594 C 458.347656 26.054688 466.425781 26.148438 474.558594 26.433594 Z M 474.558594 26.433594 "/>
<path style=" stroke:none;fill-rule:nonzero;fill:rgb(43.529412%,60.784316%,99.607843%);fill-opacity:1;" d="M 74.40625 45.3125 C 76.421875 46.984375 78.257812 48.792969 80.09375 50.65625 C 80.570312 51.132812 81.042969 51.609375 81.515625 52.085938 C 82.671875 53.253906 83.828125 54.421875 84.980469 55.589844 C 85.632812 56.246094 86.28125 56.90625 86.933594 57.5625 C 87.546875 58.175781 88.15625 58.792969 88.765625 59.414062 C 90.25 60.90625 91.726562 62.257812 93.46875 63.449219 C 93.628906 63.582031 93.789062 63.714844 93.953125 63.851562 C 93.953125 64.078125 93.953125 64.304688 93.953125 64.539062 C 94.136719 64.578125 94.320312 64.613281 94.511719 64.65625 C 95.867188 65.03125 97.128906 65.640625 98.417969 66.199219 C 101.039062 67.21875 104.378906 67.472656 107.066406 66.554688 C 107.503906 66.355469 107.933594 66.140625 108.351562 65.910156 C 108.585938 65.789062 108.820312 65.667969 109.058594 65.539062 C 111.269531 64.230469 112.875 62.398438 114.5625 60.492188 C 114.726562 60.3125 114.886719 60.132812 115.054688 59.945312 C 115.398438 59.5625 115.734375 59.171875 116.0625 58.777344 C 116.578125 58.199219 116.578125 58.199219 117.609375 57.328125 C 119.609375 57.273438 120.769531 58.347656 122.230469 59.582031 C 126.175781 63.378906 128.179688 68.367188 128.328125 73.804688 C 128.210938 78.324219 126.839844 82.222656 124.125 85.820312 C 123.9375 86.074219 123.746094 86.328125 123.554688 86.59375 C 120.269531 90.644531 115.523438 92.980469 110.410156 93.714844 C 105.472656 94.15625 100.269531 92.660156 96.433594 89.503906 C 96.125 89.214844 95.816406 88.929688 95.5 88.632812 C 95.242188 88.386719 95.242188 88.386719 94.976562 88.140625 C 92.625 85.929688 90.34375 83.644531 88.0625 81.367188 C 87.703125 81.007812 87.703125 81.007812 87.335938 80.640625 C 86.070312 79.382812 84.808594 78.121094 83.546875 76.859375 C 82.25 75.5625 80.953125 74.273438 79.652344 72.980469 C 78.644531 71.976562 77.636719 70.972656 76.632812 69.96875 C 76.15625 69.488281 75.675781 69.011719 75.199219 68.539062 C 68.476562 61.867188 68.476562 61.867188 68.132812 57.839844 C 68.128906 57.203125 68.128906 57.203125 68.128906 56.554688 C 68.121094 56.136719 68.117188 55.71875 68.109375 55.285156 C 68.304688 51.941406 69.460938 49.90625 71.898438 47.671875 C 72.261719 47.328125 72.261719 47.328125 72.628906 46.976562 C 73.214844 46.414062 73.808594 45.863281 74.40625 45.3125 Z M 74.40625 45.3125 "/>
<path style=" stroke:none;fill-rule:nonzero;fill:rgb(22.352941%,65.882355%,99.607843%);fill-opacity:1;" d="M 565.574219 26.046875 C 565.984375 26.046875 566.394531 26.042969 566.816406 26.042969 C 571.503906 26.046875 576.160156 26.265625 580.855469 26.433594 C 580.96875 44.785156 581.082031 63.136719 581.199219 82.042969 C 558.226562 82.042969 558.226562 82.042969 556.851562 81.703125 C 556.851562 63.460938 556.851562 45.222656 556.851562 26.433594 C 559.808594 26.164062 562.621094 26.039062 565.574219 26.046875 Z M 565.574219 26.046875 "/>
<path style=" stroke:none;fill-rule:nonzero;fill:rgb(67.058825%,87.058824%,98.823529%);fill-opacity:1;" d="M 85.722656 33.296875 C 90.050781 35.355469 92.378906 41.039062 93.953125 45.3125 C 96.023438 51.628906 96.226562 57.769531 94.636719 64.195312 C 93.113281 63.699219 92.195312 62.945312 91.035156 61.851562 C 90.84375 61.671875 90.65625 61.496094 90.464844 61.3125 C 87.355469 58.363281 84.351562 55.304688 81.328125 52.265625 C 80.6875 51.621094 80.046875 50.980469 79.40625 50.335938 C 77.855469 48.777344 76.300781 47.21875 74.75 45.65625 C 74.503906 45.867188 74.503906 45.867188 74.253906 46.082031 C 73.929688 46.359375 73.929688 46.359375 73.601562 46.644531 C 73.386719 46.828125 73.171875 47.011719 72.953125 47.199219 C 72.484375 47.597656 72.019531 48 71.550781 48.398438 C 69.355469 50.417969 68.71875 52.207031 68.472656 55.152344 C 68.328125 59.554688 69.574219 61.929688 72.351562 65.222656 C 72.550781 65.464844 72.753906 65.703125 72.960938 65.953125 C 73.441406 66.515625 73.921875 67.070312 74.40625 67.625 C 71 70.949219 67.605469 72.710938 62.835938 72.90625 C 60.484375 72.863281 58.421875 72.230469 56.234375 71.402344 C 55.851562 71.261719 55.851562 71.261719 55.464844 71.113281 C 51.476562 69.371094 48.226562 65.445312 46.632812 61.449219 C 45.316406 57.46875 45.644531 53.480469 47.316406 49.6875 C 49.539062 45.269531 53.148438 42.308594 57.78125 40.761719 C 62.230469 39.425781 66.882812 40.042969 70.957031 42.203125 C 72.191406 42.917969 73.339844 43.667969 74.40625 44.625 C 74.644531 44.390625 74.878906 44.152344 75.121094 43.910156 C 78.65625 40.375 82.1875 36.835938 85.722656 33.296875 Z M 85.722656 33.296875 "/>
<path style=" stroke:none;fill-rule:nonzero;fill:rgb(62.7451%,85.882354%,98.823529%);fill-opacity:1;" d="M 119.667969 22.65625 C 123.886719 25.90625 127.082031 30.34375 127.898438 35.703125 C 128.417969 41.347656 127.660156 46.875 124.125 51.492188 C 122.925781 52.921875 121.652344 54.273438 120.355469 55.613281 C 120.070312 55.914062 119.78125 56.214844 119.488281 56.527344 C 118.671875 57.300781 117.882812 57.78125 116.925781 58.359375 C 116.296875 58.933594 115.679688 59.53125 115.082031 60.140625 C 114.835938 60.386719 114.835938 60.386719 114.585938 60.640625 C 113.253906 62.007812 111.980469 63.417969 110.753906 64.878906 C 110.414062 64.765625 110.074219 64.652344 109.726562 64.539062 C 109.75 64.347656 109.773438 64.160156 109.800781 63.964844 C 111.296875 50.554688 107.8125 37.570312 99.445312 26.964844 C 98.652344 25.976562 97.847656 25 97.039062 24.03125 C 97.78125 22.144531 99.425781 21.476562 101.152344 20.597656 C 107.398438 18.003906 114.085938 18.988281 119.667969 22.65625 Z M 119.667969 22.65625 "/>
<path style=" stroke:none;fill-rule:nonzero;fill:rgb(71.372551%,89.803922%,98.431373%);fill-opacity:1;" d="M 85.722656 33.296875 C 90.050781 35.355469 92.378906 41.039062 93.953125 45.3125 C 96.023438 51.628906 96.226562 57.769531 94.636719 64.195312 C 93.117188 63.699219 92.203125 62.949219 91.042969 61.859375 C 90.855469 61.683594 90.667969 61.507812 90.476562 61.324219 C 87.304688 58.316406 84.238281 55.191406 81.15625 52.09375 C 80.5 51.433594 79.84375 50.773438 79.1875 50.117188 C 77.59375 48.515625 76 46.914062 74.40625 45.3125 C 75.453125 43.613281 76.667969 42.273438 78.085938 40.875 C 78.304688 40.65625 78.523438 40.4375 78.75 40.214844 C 79.445312 39.523438 80.140625 38.835938 80.835938 38.148438 C 81.308594 37.675781 81.78125 37.207031 82.253906 36.738281 C 83.410156 35.589844 84.566406 34.441406 85.722656 33.296875 Z M 85.722656 33.296875 "/>
</g>
</svg>
